<svg xmlns="http://www.w3.org/2000/svg" xmlns:xlink="http://www.w3.org/1999/xlink" width="462" zoomAndPan="magnify" viewBox="0 0 346.5 190.499994" height="254" preserveAspectRatio="xMidYMid meet" version="1.0"><defs><g/><clipPath id="5f2c0aec0a"><path d="M 0.203125 0 L 345.796875 0 L 345.796875 190 L 0.203125 190 Z M 0.203125 0 " clip-rule="nonzero"/></clipPath><clipPath id="0de29b110b"><path d="M 46 53 L 145 53 L 145 171 L 46 171 Z M 46 53 " clip-rule="nonzero"/></clipPath><clipPath id="039fe98f6b"><path d="M 0.203125 58.90625 L 124.351562 17.386719 L 168.003906 147.921875 L 43.855469 189.4375 Z M 0.203125 58.90625 " clip-rule="nonzero"/></clipPath><clipPath id="65d6885650"><path d="M 0.203125 58.90625 L 124.351562 17.386719 L 168.003906 147.921875 L 43.855469 189.4375 Z M 0.203125 58.90625 " clip-rule="nonzero"/></clipPath><clipPath id="9796a719ae"><path d="M 0.203125 58.90625 L 124.351562 17.386719 L 168.003906 147.921875 L 43.855469 189.4375 Z M 0.203125 58.90625 " clip-rule="nonzero"/></clipPath><clipPath id="3f30ba111e"><path d="M 12.113281 68.308594 L 128.371094 29.429688 L 167.992188 147.902344 L 51.734375 186.78125 Z M 12.113281 68.308594 " clip-rule="nonzero"/></clipPath><clipPath id="937ab1a6b4"><path d="M 32 62 L 55 62 L 55 167 L 32 167 Z M 32 62 " clip-rule="nonzero"/></clipPath><clipPath id="56fb18b03a"><path d="M 0.203125 58.90625 L 124.351562 17.386719 L 168.003906 147.921875 L 43.855469 189.4375 Z M 0.203125 58.90625 " clip-rule="nonzero"/></clipPath><clipPath id="8cec5877b7"><path d="M 0.203125 58.90625 L 124.351562 17.386719 L 168.003906 147.921875 L 43.855469 189.4375 Z M 0.203125 58.90625 " clip-rule="nonzero"/></clipPath><clipPath id="227aaa2af1"><path d="M 0.203125 58.90625 L 124.351562 17.386719 L 168.003906 147.921875 L 43.855469 189.4375 Z M 0.203125 58.90625 " clip-rule="nonzero"/></clipPath><clipPath id="79ba4c0d0c"><path d="M 24 61 L 52 61 L 52 139 L 24 139 Z M 24 61 " clip-rule="nonzero"/></clipPath><clipPath id="83ce29d5b3"><path d="M 0.203125 58.90625 L 124.351562 17.386719 L 168.003906 147.921875 L 43.855469 189.4375 Z M 0.203125 58.90625 " clip-rule="nonzero"/></clipPath><clipPath id="9ce2d2a1ec"><path d="M 0.203125 58.90625 L 124.351562 17.386719 L 168.003906 147.921875 L 43.855469 189.4375 Z M 0.203125 58.90625 " clip-rule="nonzero"/></clipPath><clipPath id="75bbcc7cd5"><path d="M 0.203125 58.90625 L 124.351562 17.386719 L 168.003906 147.921875 L 43.855469 189.4375 Z M 0.203125 58.90625 " clip-rule="nonzero"/></clipPath><clipPath id="52f597f78e"><path d="M 71 32 L 117 32 L 117 58 L 71 58 Z M 71 32 " clip-rule="nonzero"/></clipPath><clipPath id="f59bff47c7"><path d="M 0.203125 58.90625 L 124.351562 17.386719 L 168.003906 147.921875 L 43.855469 189.4375 Z M 0.203125 58.90625 " clip-rule="nonzero"/></clipPath><clipPath id="9092568ff0"><path d="M 0.203125 58.90625 L 124.351562 17.386719 L 168.003906 147.921875 L 43.855469 189.4375 Z M 0.203125 58.90625 " clip-rule="nonzero"/></clipPath><clipPath id="08cc8f101f"><path d="M 0.203125 58.90625 L 124.351562 17.386719 L 168.003906 147.921875 L 43.855469 189.4375 Z M 0.203125 58.90625 " clip-rule="nonzero"/></clipPath><clipPath id="5e9d2dab61"><rect x="0" width="257" y="0" height="100"/></clipPath></defs><g clip-path="url(#5f2c0aec0a)"><path fill="#ffffff" d="M 0.203125 0 L 345.796875 0 L 345.796875 190 L 0.203125 190 Z M 0.203125 0 " fill-opacity="1" fill-rule="nonzero"/></g><g clip-path="url(#0de29b110b)"><g clip-path="url(#039fe98f6b)"><g clip-path="url(#65d6885650)"><g clip-path="url(#9796a719ae)"><g clip-path="url(#3f30ba111e)"><path fill="#100f0d" d="M 137.636719 57.136719 L 137.457031 56.648438 C 134.15625 57.390625 130.746094 57.859375 127.347656 58.214844 C 113.699219 59.628906 99.839844 59.199219 86.207031 57.839844 C 82.46875 57.445312 77.894531 56.898438 74.195312 56.3125 C 69.667969 55.671875 64.675781 54.730469 60.191406 53.894531 L 57.253906 53.253906 L 46.746094 164.773438 L 46.6875 166.148438 L 46.675781 166.441406 L 46.492188 170.734375 C 48.15625 170.25 50.25 169.679688 51.917969 169.261719 C 55.355469 168.402344 59.175781 167.546875 62.664062 166.828125 C 75.300781 164.234375 91.523438 162.027344 104.359375 160.625 C 115.277344 159.390625 126.59375 158.605469 137.5625 158.078125 C 133.863281 158.058594 130.152344 157.996094 126.445312 158.011719 C 115.410156 158.066406 104.070312 158.472656 93.074219 159.261719 C 80.410156 160.257812 66.5625 160.992188 53.710938 163.125 L 62.480469 59.648438 C 70.222656 60.648438 78.167969 61.445312 85.910156 61.808594 C 99.789062 62.441406 113.84375 63.445312 127.582031 61.273438 C 130.644531 60.78125 133.671875 60.214844 136.703125 59.414062 C 137.097656 60.375 144.730469 78.972656 144.730469 78.972656 L 137.636719 57.136719 " fill-opacity="1" fill-rule="nonzero"/></g></g></g></g></g><g clip-path="url(#937ab1a6b4)"><g clip-path="url(#56fb18b03a)"><g clip-path="url(#8cec5877b7)"><g clip-path="url(#227aaa2af1)"><path fill="#100f0d" d="M 32.898438 151.414062 L 32.242188 154.710938 L 43.730469 166.503906 L 54.03125 62.050781 L 32.898438 151.414062 " fill-opacity="1" fill-rule="nonzero"/></g></g></g></g><g clip-path="url(#79ba4c0d0c)"><g clip-path="url(#83ce29d5b3)"><g clip-path="url(#9ce2d2a1ec)"><g clip-path="url(#75bbcc7cd5)"><path fill="#100f0d" d="M 51.921875 61 L 24.941406 132.097656 L 32.632812 138.039062 Z M 51.921875 61 " fill-opacity="1" fill-rule="nonzero"/></g></g></g></g><g clip-path="url(#52f597f78e)"><g clip-path="url(#f59bff47c7)"><g clip-path="url(#9092568ff0)"><g clip-path="url(#08cc8f101f)"><path fill="#100f0d" d="M 89.640625 35.78125 C 90.820312 35.867188 92.226562 36.496094 93.75 38.101562 C 88.414062 43.425781 84.621094 52.0625 84.050781 53.414062 L 87.789062 53.757812 C 89.117188 50.621094 92.027344 44.46875 95.605469 40.503906 C 97.667969 43.667969 99.851562 48.75 101.910156 56.703125 L 104.339844 56.105469 C 102.332031 48.359375 100.128906 42.492188 97.617188 38.585938 C 99.117188 37.402344 100.695312 36.707031 102.296875 36.824219 C 105.46875 37.054688 110.28125 41.203125 114.5625 57.746094 L 116.992188 57.148438 C 113.152344 42.3125 108.59375 34.359375 102.507812 33.914062 C 100.175781 33.742188 97.933594 34.6875 95.867188 36.246094 C 94.035156 34.167969 92.042969 33.03125 89.851562 32.871094 C 80.253906 32.164062 72.246094 50.355469 71.394531 52.371094 L 75.136719 52.714844 C 77.226562 47.773438 83.257812 35.308594 89.640625 35.78125 " fill-opacity="1" fill-rule="nonzero"/></g></g></g></g><g transform="matrix(1, 0, 0, 1, 61, 27)"><g clip-path="url(#5e9d2dab61)"><g fill="#000000" fill-opacity="1"><g transform="translate(1.725202, 79.027419)"><g><path d="M 109.453125 -39.921875 L 100.140625 -30.609375 L 90.734375 -39.921875 L 100.140625 -49.25 Z M 134.9375 -20.375 L 123.96875 0 L 84.875 0 L 80.59375 8.5 L 12.703125 8.5 L 4.296875 -8.5 L 71.34375 -8.5 L 67.0625 -16.984375 L 66.0625 -18.890625 L 79.34375 -26.3125 L 84.046875 -16.984375 L 89.078125 -26.3125 L 126.453125 -33.90625 Z M 134.9375 -20.375 "/></g></g></g><g fill="#000000" fill-opacity="1"><g transform="translate(137.481366, 79.027419)"><g><path d="M 7.34375 8.5 L 13.359375 -2.140625 L 0 -6.765625 L 12.296875 -29.6875 L 24.578125 -29.6875 L 34.5625 -9.8125 L 24.328125 8.5 Z M 7.34375 8.5 "/></g></g></g><g fill="#000000" fill-opacity="1"><g transform="translate(173.276128, 79.027419)"><g><path d="M 26.8125 -16.984375 L 26.8125 0 L 16.984375 0 L 12.203125 8.5 L -4.78125 8.5 L 9.65625 -16.984375 Z M 26.8125 -16.984375 "/></g></g></g><g fill="#000000" fill-opacity="1"><g transform="translate(200.080958, 79.027419)"><g><path d="M 53.703125 -16.984375 L 44.375 0 L 0 0 L -6.59375 -16.984375 L 11.390625 -16.984375 L 17.984375 -28.203125 L 42.5625 -34.0625 L 34.8125 -18.71875 L 27.296875 -18.71875 L 27.296875 -16.984375 Z M 53.703125 -16.984375 "/></g></g></g></g></g><g fill="#000000" fill-opacity="1"><g transform="translate(62.816174, 157.595165)"><g><path d="M 1.765625 -0.453125 L 1.734375 -0.734375 C 1.710938 -0.898438 1.625 -0.972656 1.46875 -0.953125 L 1 -0.90625 C 0.832031 -0.882812 0.742188 -0.957031 0.734375 -1.125 L 0.484375 -3.34375 C 0.460938 -3.5 0.535156 -3.585938 0.703125 -3.609375 L 3.171875 -3.890625 C 3.328125 -3.898438 3.414062 -3.828125 3.4375 -3.671875 L 3.46875 -3.375 C 3.476562 -3.21875 3.566406 -3.148438 3.734375 -3.171875 L 4.015625 -3.203125 C 4.179688 -3.222656 4.273438 -3.148438 4.296875 -2.984375 L 4.46875 -1.546875 C 4.476562 -1.378906 4.566406 -1.304688 4.734375 -1.328125 L 5.015625 -1.359375 C 5.179688 -1.367188 5.257812 -1.457031 5.25 -1.625 L 5.21875 -1.890625 C 5.195312 -2.054688 5.269531 -2.148438 5.4375 -2.171875 L 5.71875 -2.203125 C 5.882812 -2.222656 5.957031 -2.316406 5.9375 -2.484375 L 5.53125 -6.125 C 5.507812 -6.289062 5.414062 -6.363281 5.25 -6.34375 L 1.859375 -5.96875 C 1.691406 -5.945312 1.601562 -6.015625 1.59375 -6.171875 L 1.46875 -7.234375 C 1.445312 -7.390625 1.519531 -7.476562 1.6875 -7.5 L 5.078125 -7.875 C 5.242188 -7.894531 5.316406 -7.988281 5.296875 -8.15625 L 4.984375 -10.96875 C 4.960938 -11.132812 4.867188 -11.207031 4.703125 -11.1875 L 4.28125 -11.140625 C 4.113281 -11.117188 4.023438 -11.191406 4.015625 -11.359375 L 3.984375 -11.640625 C 3.960938 -11.796875 3.867188 -11.867188 3.703125 -11.859375 L 3.421875 -11.828125 C 3.253906 -11.804688 3.179688 -11.71875 3.203125 -11.5625 L 3.453125 -9.328125 C 3.460938 -9.171875 3.382812 -9.082031 3.21875 -9.0625 L 0.234375 -8.734375 C 0.0664062 -8.710938 -0.0195312 -8.78125 -0.03125 -8.9375 L -0.375 -11.9375 C -0.394531 -12.101562 -0.328125 -12.191406 -0.171875 -12.203125 L 7.234375 -13.046875 C 7.390625 -13.054688 7.476562 -12.976562 7.5 -12.8125 L 7.53125 -12.53125 C 7.550781 -12.363281 7.644531 -12.289062 7.8125 -12.3125 L 8.09375 -12.34375 C 8.257812 -12.363281 8.351562 -12.296875 8.375 -12.140625 L 8.734375 -8.9375 C 8.742188 -8.769531 8.664062 -8.675781 8.5 -8.65625 L 8.21875 -8.625 C 8.050781 -8.601562 7.976562 -8.507812 8 -8.34375 L 8.03125 -8.0625 C 8.050781 -7.894531 7.984375 -7.804688 7.828125 -7.796875 L 7.546875 -7.765625 C 7.378906 -7.742188 7.304688 -7.65625 7.328125 -7.5 L 7.359375 -7.203125 C 7.367188 -7.054688 7.457031 -6.992188 7.625 -7.015625 L 7.90625 -7.046875 C 8.0625 -7.054688 8.148438 -6.976562 8.171875 -6.8125 L 8.203125 -6.515625 C 8.222656 -6.359375 8.316406 -6.289062 8.484375 -6.3125 L 8.765625 -6.34375 C 8.929688 -6.363281 9.023438 -6.289062 9.046875 -6.125 L 9.40625 -2.875 C 9.425781 -2.707031 9.351562 -2.613281 9.1875 -2.59375 L 9 -2.578125 C 8.832031 -2.554688 8.757812 -2.460938 8.78125 -2.296875 L 8.8125 -2.03125 C 8.820312 -1.863281 8.75 -1.769531 8.59375 -1.75 L 8.3125 -1.71875 C 8.144531 -1.707031 8.070312 -1.617188 8.09375 -1.453125 L 8.125 -1.171875 C 8.144531 -1.003906 8.070312 -0.910156 7.90625 -0.890625 L 2.046875 -0.234375 C 1.878906 -0.210938 1.785156 -0.285156 1.765625 -0.453125 Z M 1.765625 -0.453125 "/></g></g></g><g fill="#000000" fill-opacity="1"><g transform="translate(73.268671, 156.42184)"><g><path d="M 3.15625 -11.5625 L 3.6875 -6.71875 C 3.707031 -6.570312 3.796875 -6.503906 3.953125 -6.515625 L 4.25 -6.546875 C 4.40625 -6.566406 4.472656 -6.648438 4.453125 -6.796875 L 4.421875 -7.09375 C 4.398438 -7.25 4.472656 -7.335938 4.640625 -7.359375 L 4.921875 -7.390625 C 5.085938 -7.410156 5.164062 -7.503906 5.15625 -7.671875 L 4.78125 -10.953125 C 4.757812 -11.117188 4.664062 -11.191406 4.5 -11.171875 L 4.21875 -11.140625 C 4.050781 -11.117188 3.960938 -11.191406 3.953125 -11.359375 L 3.921875 -11.640625 C 3.898438 -11.796875 3.8125 -11.863281 3.65625 -11.84375 L 3.359375 -11.8125 C 3.203125 -11.800781 3.132812 -11.71875 3.15625 -11.5625 Z M 0.875 -0.34375 L -0.421875 -11.921875 C -0.441406 -12.085938 -0.367188 -12.179688 -0.203125 -12.203125 L 6.265625 -12.9375 C 6.429688 -12.957031 6.523438 -12.882812 6.546875 -12.71875 L 6.578125 -12.4375 C 6.597656 -12.269531 6.691406 -12.191406 6.859375 -12.203125 L 7.140625 -12.234375 C 7.304688 -12.253906 7.398438 -12.1875 7.421875 -12.03125 L 7.453125 -11.75 C 7.460938 -11.582031 7.546875 -11.507812 7.703125 -11.53125 L 7.984375 -11.5625 C 8.148438 -11.582031 8.242188 -11.507812 8.265625 -11.34375 L 8.640625 -8.0625 C 8.648438 -7.894531 8.570312 -7.800781 8.40625 -7.78125 L 8.125 -7.75 C 7.96875 -7.726562 7.898438 -7.640625 7.921875 -7.484375 L 7.953125 -7.1875 C 7.972656 -7.039062 7.898438 -6.957031 7.734375 -6.9375 L 6.28125 -6.78125 C 6.113281 -6.757812 6.039062 -6.664062 6.0625 -6.5 L 6.09375 -6.21875 C 6.113281 -6.050781 6.207031 -5.976562 6.375 -6 L 7.828125 -6.15625 C 7.992188 -6.175781 8.082031 -6.101562 8.09375 -5.9375 L 8.125 -5.65625 C 8.144531 -5.488281 8.234375 -5.414062 8.390625 -5.4375 L 8.671875 -5.46875 C 8.835938 -5.488281 8.929688 -5.414062 8.953125 -5.25 L 9.390625 -1.3125 C 9.410156 -1.144531 9.335938 -1.050781 9.171875 -1.03125 L 6.1875 -0.6875 C 6.019531 -0.675781 5.925781 -0.753906 5.90625 -0.921875 L 5.46875 -4.859375 C 5.445312 -5.023438 5.351562 -5.097656 5.1875 -5.078125 L 4.90625 -5.046875 C 4.738281 -5.023438 4.644531 -5.097656 4.625 -5.265625 L 4.59375 -5.546875 C 4.582031 -5.710938 4.5 -5.785156 4.34375 -5.765625 L 4.046875 -5.734375 C 3.890625 -5.722656 3.816406 -5.632812 3.828125 -5.46875 L 4.359375 -0.75 C 4.378906 -0.582031 4.304688 -0.488281 4.140625 -0.46875 L 1.15625 -0.125 C 0.988281 -0.101562 0.894531 -0.175781 0.875 -0.34375 Z M 0.875 -0.34375 "/></g></g></g><g fill="#000000" fill-opacity="1"><g transform="translate(83.592121, 155.263001)"><g><path d="M 2.421875 -0.53125 L 2.390625 -0.8125 C 2.367188 -0.976562 2.273438 -1.050781 2.109375 -1.03125 L 1.828125 -1 C 1.660156 -0.976562 1.570312 -1.050781 1.5625 -1.21875 L 1.53125 -1.484375 C 1.507812 -1.648438 1.414062 -1.722656 1.25 -1.703125 L 0.984375 -1.671875 C 0.816406 -1.648438 0.722656 -1.722656 0.703125 -1.890625 L -0.25 -10.375 C -0.269531 -10.539062 -0.195312 -10.632812 -0.03125 -10.65625 L 0.234375 -10.6875 C 0.398438 -10.707031 0.476562 -10.800781 0.46875 -10.96875 L 0.4375 -11.25 C 0.414062 -11.40625 0.488281 -11.492188 0.65625 -11.515625 L 0.9375 -11.546875 C 1.101562 -11.566406 1.175781 -11.660156 1.15625 -11.828125 L 1.125 -12.109375 C 1.101562 -12.273438 1.175781 -12.363281 1.34375 -12.375 L 6.265625 -12.9375 C 6.429688 -12.957031 6.523438 -12.882812 6.546875 -12.71875 L 6.578125 -12.4375 C 6.597656 -12.269531 6.691406 -12.191406 6.859375 -12.203125 L 7.140625 -12.234375 C 7.304688 -12.253906 7.398438 -12.1875 7.421875 -12.03125 L 7.453125 -11.75 C 7.460938 -11.582031 7.546875 -11.507812 7.703125 -11.53125 L 7.984375 -11.5625 C 8.148438 -11.582031 8.242188 -11.507812 8.265625 -11.34375 L 9.21875 -2.859375 C 9.238281 -2.691406 9.164062 -2.597656 9 -2.578125 L 8.71875 -2.546875 C 8.5625 -2.523438 8.492188 -2.429688 8.515625 -2.265625 L 8.546875 -2 C 8.554688 -1.832031 8.476562 -1.738281 8.3125 -1.71875 L 8.03125 -1.6875 C 7.863281 -1.675781 7.789062 -1.585938 7.8125 -1.421875 L 7.84375 -1.140625 C 7.863281 -0.972656 7.789062 -0.878906 7.625 -0.859375 L 2.703125 -0.296875 C 2.535156 -0.285156 2.441406 -0.363281 2.421875 -0.53125 Z M 3.15625 -11.5625 L 4.28125 -1.53125 C 4.289062 -1.363281 4.375 -1.285156 4.53125 -1.296875 L 4.828125 -1.328125 C 4.984375 -1.347656 5.054688 -1.441406 5.046875 -1.609375 L 5.015625 -1.875 C 4.992188 -2.039062 5.066406 -2.132812 5.234375 -2.15625 L 5.515625 -2.1875 C 5.679688 -2.207031 5.753906 -2.300781 5.734375 -2.46875 L 4.78125 -10.953125 C 4.757812 -11.117188 4.664062 -11.191406 4.5 -11.171875 L 4.21875 -11.140625 C 4.050781 -11.117188 3.960938 -11.191406 3.953125 -11.359375 L 3.921875 -11.640625 C 3.898438 -11.796875 3.8125 -11.863281 3.65625 -11.84375 L 3.359375 -11.8125 C 3.203125 -11.800781 3.132812 -11.71875 3.15625 -11.5625 Z M 3.15625 -11.5625 "/></g></g></g><g fill="#000000" fill-opacity="1"><g transform="translate(93.91557, 154.104161)"><g><path d="M 2.421875 -0.53125 L 2.390625 -0.8125 C 2.367188 -0.976562 2.273438 -1.050781 2.109375 -1.03125 L 1.828125 -1 C 1.660156 -0.976562 1.570312 -1.050781 1.5625 -1.21875 L 1.53125 -1.484375 C 1.507812 -1.648438 1.414062 -1.722656 1.25 -1.703125 L 0.984375 -1.671875 C 0.816406 -1.648438 0.722656 -1.722656 0.703125 -1.890625 L -0.25 -10.375 C -0.269531 -10.539062 -0.195312 -10.632812 -0.03125 -10.65625 L 0.234375 -10.6875 C 0.398438 -10.707031 0.476562 -10.800781 0.46875 -10.96875 L 0.4375 -11.25 C 0.414062 -11.40625 0.488281 -11.492188 0.65625 -11.515625 L 0.9375 -11.546875 C 1.101562 -11.566406 1.175781 -11.660156 1.15625 -11.828125 L 1.125 -12.109375 C 1.101562 -12.273438 1.175781 -12.363281 1.34375 -12.375 L 6.265625 -12.9375 C 6.429688 -12.957031 6.523438 -12.882812 6.546875 -12.71875 L 6.578125 -12.4375 C 6.597656 -12.269531 6.691406 -12.191406 6.859375 -12.203125 L 7.140625 -12.234375 C 7.304688 -12.253906 7.398438 -12.1875 7.421875 -12.03125 L 7.453125 -11.75 C 7.460938 -11.582031 7.546875 -11.507812 7.703125 -11.53125 L 7.984375 -11.5625 C 8.148438 -11.582031 8.242188 -11.507812 8.265625 -11.34375 L 9.21875 -2.859375 C 9.238281 -2.691406 9.164062 -2.597656 9 -2.578125 L 8.71875 -2.546875 C 8.5625 -2.523438 8.492188 -2.429688 8.515625 -2.265625 L 8.546875 -2 C 8.554688 -1.832031 8.476562 -1.738281 8.3125 -1.71875 L 8.03125 -1.6875 C 7.863281 -1.675781 7.789062 -1.585938 7.8125 -1.421875 L 7.84375 -1.140625 C 7.863281 -0.972656 7.789062 -0.878906 7.625 -0.859375 L 2.703125 -0.296875 C 2.535156 -0.285156 2.441406 -0.363281 2.421875 -0.53125 Z M 3.15625 -11.5625 L 4.28125 -1.53125 C 4.289062 -1.363281 4.375 -1.285156 4.53125 -1.296875 L 4.828125 -1.328125 C 4.984375 -1.347656 5.054688 -1.441406 5.046875 -1.609375 L 5.015625 -1.875 C 4.992188 -2.039062 5.066406 -2.132812 5.234375 -2.15625 L 5.515625 -2.1875 C 5.679688 -2.207031 5.753906 -2.300781 5.734375 -2.46875 L 4.78125 -10.953125 C 4.757812 -11.117188 4.664062 -11.191406 4.5 -11.171875 L 4.21875 -11.140625 C 4.050781 -11.117188 3.960938 -11.191406 3.953125 -11.359375 L 3.921875 -11.640625 C 3.898438 -11.796875 3.8125 -11.863281 3.65625 -11.84375 L 3.359375 -11.8125 C 3.203125 -11.800781 3.132812 -11.71875 3.15625 -11.5625 Z M 3.15625 -11.5625 "/></g></g></g><g fill="#000000" fill-opacity="1"><g transform="translate(104.23902, 152.945322)"><g><path d="M 2.421875 -0.53125 L 2.390625 -0.8125 C 2.367188 -0.976562 2.273438 -1.050781 2.109375 -1.03125 L 1.828125 -1 C 1.660156 -0.976562 1.570312 -1.050781 1.5625 -1.21875 L 1.53125 -1.484375 C 1.507812 -1.648438 1.414062 -1.722656 1.25 -1.703125 L 0.984375 -1.671875 C 0.816406 -1.648438 0.722656 -1.722656 0.703125 -1.890625 L -0.25 -10.375 C -0.269531 -10.539062 -0.195312 -10.632812 -0.03125 -10.65625 L 0.234375 -10.6875 C 0.398438 -10.707031 0.476562 -10.800781 0.46875 -10.96875 L 0.4375 -11.25 C 0.414062 -11.40625 0.488281 -11.492188 0.65625 -11.515625 L 0.9375 -11.546875 C 1.101562 -11.566406 1.175781 -11.660156 1.15625 -11.828125 L 1.125 -12.109375 C 1.101562 -12.273438 1.175781 -12.363281 1.34375 -12.375 L 6.265625 -12.9375 C 6.429688 -12.957031 6.523438 -12.882812 6.546875 -12.71875 L 6.578125 -12.4375 C 6.597656 -12.269531 6.691406 -12.191406 6.859375 -12.203125 L 7.140625 -12.234375 C 7.304688 -12.253906 7.398438 -12.1875 7.421875 -12.03125 L 7.453125 -11.75 C 7.460938 -11.582031 7.546875 -11.507812 7.703125 -11.53125 L 7.984375 -11.5625 C 8.148438 -11.582031 8.242188 -11.507812 8.265625 -11.34375 L 9.21875 -2.859375 C 9.238281 -2.691406 9.164062 -2.597656 9 -2.578125 L 8.71875 -2.546875 C 8.5625 -2.523438 8.492188 -2.429688 8.515625 -2.265625 L 8.546875 -2 C 8.554688 -1.832031 8.476562 -1.738281 8.3125 -1.71875 L 8.03125 -1.6875 C 7.863281 -1.675781 7.789062 -1.585938 7.8125 -1.421875 L 7.84375 -1.140625 C 7.863281 -0.972656 7.789062 -0.878906 7.625 -0.859375 L 2.703125 -0.296875 C 2.535156 -0.285156 2.441406 -0.363281 2.421875 -0.53125 Z M 3.15625 -11.5625 L 4.28125 -1.53125 C 4.289062 -1.363281 4.375 -1.285156 4.53125 -1.296875 L 4.828125 -1.328125 C 4.984375 -1.347656 5.054688 -1.441406 5.046875 -1.609375 L 5.015625 -1.875 C 4.992188 -2.039062 5.066406 -2.132812 5.234375 -2.15625 L 5.515625 -2.1875 C 5.679688 -2.207031 5.753906 -2.300781 5.734375 -2.46875 L 4.78125 -10.953125 C 4.757812 -11.117188 4.664062 -11.191406 4.5 -11.171875 L 4.21875 -11.140625 C 4.050781 -11.117188 3.960938 -11.191406 3.953125 -11.359375 L 3.921875 -11.640625 C 3.898438 -11.796875 3.8125 -11.863281 3.65625 -11.84375 L 3.359375 -11.8125 C 3.203125 -11.800781 3.132812 -11.71875 3.15625 -11.5625 Z M 3.15625 -11.5625 "/></g></g></g><g fill="#000000" fill-opacity="1"><g transform="translate(114.56247, 151.786482)"><g><path d="M 0.875 -0.34375 L -0.421875 -11.921875 C -0.441406 -12.085938 -0.367188 -12.179688 -0.203125 -12.203125 L 6.265625 -12.9375 C 6.429688 -12.957031 6.523438 -12.882812 6.546875 -12.71875 L 6.578125 -12.4375 C 6.597656 -12.269531 6.691406 -12.191406 6.859375 -12.203125 L 7.140625 -12.234375 C 7.304688 -12.253906 7.398438 -12.1875 7.421875 -12.03125 L 7.453125 -11.75 C 7.460938 -11.582031 7.546875 -11.507812 7.703125 -11.53125 L 7.984375 -11.5625 C 8.148438 -11.582031 8.242188 -11.507812 8.265625 -11.34375 L 9.21875 -2.859375 C 9.238281 -2.691406 9.164062 -2.597656 9 -2.578125 L 8.71875 -2.546875 C 8.5625 -2.523438 8.492188 -2.429688 8.515625 -2.265625 L 8.546875 -2 C 8.554688 -1.832031 8.476562 -1.738281 8.3125 -1.71875 L 8.03125 -1.6875 C 7.863281 -1.675781 7.789062 -1.585938 7.8125 -1.421875 L 7.84375 -1.140625 C 7.863281 -0.972656 7.789062 -0.878906 7.625 -0.859375 L 1.15625 -0.125 C 0.988281 -0.101562 0.894531 -0.175781 0.875 -0.34375 Z M 3.15625 -11.5625 L 4.28125 -1.53125 C 4.289062 -1.363281 4.375 -1.285156 4.53125 -1.296875 L 4.828125 -1.328125 C 4.984375 -1.347656 5.054688 -1.441406 5.046875 -1.609375 L 5.015625 -1.875 C 4.992188 -2.039062 5.066406 -2.132812 5.234375 -2.15625 L 5.515625 -2.1875 C 5.679688 -2.207031 5.753906 -2.300781 5.734375 -2.46875 L 4.78125 -10.953125 C 4.757812 -11.117188 4.664062 -11.191406 4.5 -11.171875 L 4.21875 -11.140625 C 4.050781 -11.117188 3.960938 -11.191406 3.953125 -11.359375 L 3.921875 -11.640625 C 3.898438 -11.796875 3.8125 -11.863281 3.65625 -11.84375 L 3.359375 -11.8125 C 3.203125 -11.800781 3.132812 -11.71875 3.15625 -11.5625 Z M 3.15625 -11.5625 "/></g></g></g></svg>